<mxfile host="app.diagrams.net" agent="Mozilla/5.0 (Macintosh; Intel Mac OS X 10_15_7) AppleWebKit/537.36 (KHTML, like Gecko) Chrome/138.0.0.0 Safari/537.36" version="28.0.4">
  <diagram name="第 1 页" id="EUPo8QAIB9BZf9Kdl0mM">
    <mxGraphModel dx="1186" dy="647" grid="1" gridSize="10" guides="1" tooltips="1" connect="1" arrows="1" fold="1" page="1" pageScale="1" pageWidth="827" pageHeight="1169" math="0" shadow="0">
      <root>
        <mxCell id="0" />
        <mxCell id="1" parent="0" />
        <mxCell id="9GaNB3Ucm1xCQ0tJ4v_h-2" value="" style="whiteSpace=wrap;html=1;" vertex="1" parent="1">
          <mxGeometry x="120" y="190" width="390" height="510" as="geometry" />
        </mxCell>
        <mxCell id="9GaNB3Ucm1xCQ0tJ4v_h-3" value="项目管理" style="whiteSpace=wrap;html=1;" vertex="1" parent="1">
          <mxGeometry x="140" y="210" width="120" height="40" as="geometry" />
        </mxCell>
        <mxCell id="9GaNB3Ucm1xCQ0tJ4v_h-4" value="项目1" style="whiteSpace=wrap;html=1;" vertex="1" parent="1">
          <mxGeometry x="160" y="310" width="120" height="60" as="geometry" />
        </mxCell>
        <mxCell id="9GaNB3Ucm1xCQ0tJ4v_h-5" value="项目2" style="whiteSpace=wrap;html=1;" vertex="1" parent="1">
          <mxGeometry x="320" y="310" width="120" height="60" as="geometry" />
        </mxCell>
        <mxCell id="9GaNB3Ucm1xCQ0tJ4v_h-6" value="" style="whiteSpace=wrap;html=1;" vertex="1" parent="1">
          <mxGeometry x="570" y="190" width="370" height="510" as="geometry" />
        </mxCell>
        <mxCell id="9GaNB3Ucm1xCQ0tJ4v_h-7" value="集合管理" style="whiteSpace=wrap;html=1;" vertex="1" parent="1">
          <mxGeometry x="590" y="230" width="120" height="40" as="geometry" />
        </mxCell>
        <mxCell id="9GaNB3Ucm1xCQ0tJ4v_h-8" value="表单管理" style="whiteSpace=wrap;html=1;" vertex="1" parent="1">
          <mxGeometry x="590" y="280" width="120" height="40" as="geometry" />
        </mxCell>
        <mxCell id="9GaNB3Ucm1xCQ0tJ4v_h-9" value="表格管理" style="whiteSpace=wrap;html=1;" vertex="1" parent="1">
          <mxGeometry x="590" y="330" width="120" height="40" as="geometry" />
        </mxCell>
        <mxCell id="9GaNB3Ucm1xCQ0tJ4v_h-10" value="菜单管理" style="whiteSpace=wrap;html=1;" vertex="1" parent="1">
          <mxGeometry x="590" y="380" width="120" height="40" as="geometry" />
        </mxCell>
        <mxCell id="9GaNB3Ucm1xCQ0tJ4v_h-11" value="图标管理" style="whiteSpace=wrap;html=1;" vertex="1" parent="1">
          <mxGeometry x="590" y="430" width="120" height="40" as="geometry" />
        </mxCell>
        <mxCell id="9GaNB3Ucm1xCQ0tJ4v_h-12" value="图表管理" style="whiteSpace=wrap;html=1;" vertex="1" parent="1">
          <mxGeometry x="590" y="480" width="120" height="40" as="geometry" />
        </mxCell>
        <mxCell id="9GaNB3Ucm1xCQ0tJ4v_h-13" value="登录配置" style="whiteSpace=wrap;html=1;" vertex="1" parent="1">
          <mxGeometry x="590" y="530" width="120" height="40" as="geometry" />
        </mxCell>
      </root>
    </mxGraphModel>
  </diagram>
</mxfile>
